<svg id="Component_50_6" data-name="Component 50 – 6" xmlns="http://www.w3.org/2000/svg" width="168.491" height="12" viewBox="0 0 168.491 12">
  <path id="Path_42" data-name="Path 42" d="M6,0A6,6,0,1,1,0,6,6,6,0,0,1,6,0Z" transform="translate(156.491)" fill="#b9d6c9"/>
  <path id="Path_41" data-name="Path 41" d="M6,0A6,6,0,1,1,0,6,6,6,0,0,1,6,0Z" transform="translate(136.491)" fill="#b9d6c9"/>
  <path id="Path_40" data-name="Path 40" d="M6,0A6,6,0,1,1,0,6,6,6,0,0,1,6,0Z" transform="translate(116.491)" fill="#b9d6c9"/>
  <path id="Path_39" data-name="Path 39" d="M6,0A6,6,0,1,1,0,6,6,6,0,0,1,6,0Z" transform="translate(96.491)" fill="#b9d6c9"/>
  <path id="Path_38" data-name="Path 38" d="M6,0A6,6,0,1,1,0,6,6,6,0,0,1,6,0Z" transform="translate(76.491)" fill="#b9d6c9"/>
  <path id="Path_37" data-name="Path 37" d="M6,0A6,6,0,1,1,0,6,6,6,0,0,1,6,0Z" transform="translate(56.491)" fill="#b9d6c9"/>
  <path id="Path_36" data-name="Path 36" d="M6,0H42.491a6,6,0,0,1,0,12H6A6,6,0,0,1,6,0Z" fill="#a9d046"/>
</svg>
